<?xml version="1.0" encoding="iso-8859-1"?>
<!-- Generator: Adobe Illustrator 16.0.0, SVG Export Plug-In . SVG Version: 6.00 Build 0)  -->
<!DOCTYPE svg PUBLIC "-//W3C//DTD SVG 1.1//EN" "http://www.w3.org/Graphics/SVG/1.1/DTD/svg11.dtd">
<svg version="1.1" id="Layer_1" xmlns="http://www.w3.org/2000/svg" xmlns:xlink="http://www.w3.org/1999/xlink" x="0px" y="0px"
	 width="60px" height="60px" viewBox="0 0 60 60" style="enable-background:new 0 0 60 60;" xml:space="preserve">
<g>
	<path style="fill:#FFFFFF;" d="M39.945,20.058c0.795,0,1.465,0.275,2.015,0.825c0.546,0.548,0.823,1.221,0.823,2.016v17.041
		c0,0.758-0.277,1.425-0.823,1.989c-0.55,0.573-1.22,0.854-2.015,0.854H20.061c-0.758,0-1.42-0.281-1.989-0.854
		c-0.567-0.564-0.854-1.231-0.854-1.989V22.899c0-0.795,0.287-1.468,0.854-2.016c0.569-0.55,1.231-0.825,1.989-0.825h1.303v2.841
		h4.545v-2.841h8.238v2.841h4.545v-2.841H39.945z M39.945,28.581H20.061v11.358h19.885V28.581z M24.604,22.046h-1.987v-4.829h1.987
		V22.046z M37.389,22.046H35.4v-4.829h1.988V22.046z"/>
</g>
</svg>
