<?xml version="1.0" encoding="iso-8859-1"?>
<!-- Generator: Adobe Illustrator 16.0.0, SVG Export Plug-In . SVG Version: 6.00 Build 0)  -->
<!DOCTYPE svg PUBLIC "-//W3C//DTD SVG 1.1//EN" "http://www.w3.org/Graphics/SVG/1.1/DTD/svg11.dtd">
<svg version="1.1" id="Layer_1" xmlns="http://www.w3.org/2000/svg" xmlns:xlink="http://www.w3.org/1999/xlink" x="0px" y="0px"
	 width="60px" height="60px" viewBox="0 0 60 60" style="enable-background:new 0 0 60 60;" xml:space="preserve">
<g>
	<path style="fill:#FFFFFF;" d="M33.491,32.741c0.064,0,0.113-0.009,0.146-0.024c0.033-0.017,0.069-0.024,0.102-0.024v2.291
		c0,0.665-0.243,1.244-0.722,1.743c-0.482,0.499-1.07,0.746-1.768,0.746h-6.228l-3.739,3.738v-3.738h-1.244
		c-0.665,0-1.245-0.247-1.743-0.746c-0.499-0.499-0.751-1.078-0.751-1.743V27.51c0-0.697,0.252-1.289,0.751-1.768
		c0.498-0.486,1.078-0.726,1.743-0.726h4.731v7.724H33.491z M39.966,18.789c0.698,0,1.286,0.239,1.769,0.726
		c0.482,0.479,0.722,1.071,0.722,1.768v7.473c0,0.665-0.239,1.245-0.722,1.743c-0.482,0.499-1.07,0.747-1.769,0.747h-1.244v3.738
		l-3.738-3.738h-8.718v-9.962c0-0.697,0.247-1.29,0.746-1.768c0.499-0.486,1.078-0.726,1.743-0.726H39.966z"/>
</g>
</svg>
