<?xml version="1.0" encoding="iso-8859-1"?>
<!-- Generator: Adobe Illustrator 16.0.0, SVG Export Plug-In . SVG Version: 6.00 Build 0)  -->
<!DOCTYPE svg PUBLIC "-//W3C//DTD SVG 1.1//EN" "http://www.w3.org/Graphics/SVG/1.1/DTD/svg11.dtd">
<svg version="1.1" id="Layer_1" xmlns="http://www.w3.org/2000/svg" xmlns:xlink="http://www.w3.org/1999/xlink" x="0px" y="0px"
	 width="250px" height="60px" viewBox="0 0 250 60" style="enable-background:new 0 0 250 60;" xml:space="preserve">
<path style="fill:#00577C;" d="M0,0v60h60V0H0z M23,44v2h-2h-4h-2v-2v-7h2v7h4V21h2V44z M44,42v2h-6h-2l1.7-16H34v12v2h-2h-4h-2v-2
	V14h2v26h4V28v-2h2h6l-0.058,0.047l-0.046-0.005l-1.875,15.895L42,41.982V34h2V42z"/>
<g>
	<g>
		<g>
			<path style="fill:#00577C;" d="M87.677,21.597c0,0.842-0.137,1.624-0.403,2.349c-0.272,0.716-0.684,1.342-1.238,1.868
				c-0.555,0.519-1.262,0.935-2.124,1.237c-0.863,0.299-1.885,0.45-3.07,0.45c-0.33,0-0.634-0.004-0.908-0.007
				c-0.276-0.008-0.545-0.019-0.809-0.032c-0.265-0.015-0.537-0.038-0.819-0.064c-0.28-0.026-0.595-0.055-0.946-0.085V16.104
				c0.661-0.071,1.248-0.122,1.758-0.149c0.508-0.026,1.047-0.036,1.618-0.036c1.184,0,2.211,0.142,3.081,0.433
				c0.874,0.29,1.593,0.69,2.165,1.202c0.57,0.506,0.995,1.107,1.278,1.798C87.537,20.042,87.677,20.792,87.677,21.597z
				 M84.862,21.597c0-1.034-0.32-1.85-0.96-2.433c-0.638-0.589-1.573-0.882-2.811-0.882c-0.228,0-0.415,0.008-0.559,0.016
				c-0.146,0.01-0.323,0.026-0.533,0.047v6.726c0.126,0.011,0.231,0.022,0.32,0.034c0.089,0.006,0.181,0.016,0.275,0.021
				c0.093,0.003,0.19,0.008,0.293,0.008c0.104,0,0.229,0,0.375,0c0.624,0,1.161-0.084,1.612-0.25
				c0.452-0.165,0.826-0.404,1.119-0.717c0.298-0.312,0.515-0.682,0.653-1.118C84.791,22.611,84.862,22.129,84.862,21.597z"/>
		</g>
		<g>
			<path style="fill:#00577C;" d="M101.079,21.708c0,0.84-0.144,1.619-0.427,2.335c-0.286,0.714-0.69,1.335-1.207,1.86
				c-0.518,0.526-1.139,0.937-1.86,1.237c-0.721,0.301-1.524,0.453-2.405,0.453c-0.882,0-1.68-0.151-2.396-0.453
				c-0.716-0.3-1.327-0.711-1.828-1.237c-0.502-0.525-0.893-1.146-1.161-1.86c-0.271-0.716-0.407-1.495-0.407-2.335
				c0-0.84,0.144-1.622,0.43-2.341c0.287-0.726,0.688-1.344,1.201-1.869s1.133-0.936,1.856-1.237
				c0.728-0.301,1.532-0.451,2.416-0.451c0.882,0,1.677,0.149,2.39,0.451c0.708,0.302,1.317,0.712,1.82,1.237
				s0.893,1.144,1.168,1.869C100.944,20.086,101.079,20.868,101.079,21.708z M98.248,21.708c0-0.517-0.072-0.996-0.221-1.425
				c-0.142-0.431-0.348-0.8-0.611-1.111c-0.265-0.311-0.584-0.555-0.952-0.73c-0.366-0.181-0.782-0.267-1.236-0.267
				c-0.448,0-0.854,0.086-1.229,0.267c-0.374,0.176-0.693,0.419-0.959,0.73c-0.264,0.312-0.469,0.681-0.616,1.111
				c-0.143,0.429-0.216,0.908-0.216,1.425c0,0.511,0.073,0.98,0.216,1.409c0.147,0.431,0.353,0.804,0.616,1.119
				c0.266,0.319,0.585,0.567,0.959,0.742c0.375,0.177,0.781,0.264,1.229,0.264c0.454,0,0.87-0.087,1.236-0.264
				c0.368-0.175,0.688-0.422,0.952-0.742c0.264-0.315,0.47-0.688,0.611-1.119C98.176,22.688,98.248,22.219,98.248,21.708z"/>
		</g>
		<g>
			<path style="fill:#00577C;" d="M112.709,27.625l-6.879-6.181v5.961h-2.647V15.837l0.359-0.062l6.788,6.133v-5.914h2.642v11.582
				L112.709,27.625z"/>
		</g>
		<g>
			<path style="fill:#00577C;" d="M127.17,24.167c0,0.448-0.105,0.874-0.318,1.28c-0.212,0.402-0.529,0.758-0.95,1.062
				c-0.419,0.308-0.951,0.551-1.587,0.734c-0.638,0.18-1.391,0.271-2.249,0.271c-0.5,0-1.051-0.022-1.659-0.063
				c-0.606-0.039-1.19-0.099-1.751-0.171V16.136c0.209-0.032,0.447-0.063,0.716-0.095c0.27-0.03,0.55-0.056,0.839-0.078
				c0.291-0.018,0.58-0.036,0.864-0.056c0.286-0.015,0.544-0.022,0.771-0.022c0.835,0,1.557,0.084,2.181,0.257
				c0.624,0.174,1.146,0.401,1.563,0.686c0.423,0.282,0.733,0.61,0.944,0.982c0.205,0.366,0.312,0.747,0.312,1.143
				c0,0.601-0.165,1.107-0.493,1.519c-0.326,0.411-0.817,0.749-1.473,1.021c0.78,0.238,1.355,0.579,1.731,1.028
				C126.983,22.963,127.17,23.514,127.17,24.167z M124.121,19.438c0-0.343-0.144-0.637-0.429-0.882
				c-0.288-0.243-0.709-0.363-1.271-0.363c-0.237,0-0.451,0.01-0.639,0.029c-0.184,0.022-0.371,0.047-0.559,0.077v2.383
				c0.144,0.022,0.283,0.032,0.419,0.04c0.136,0.004,0.323,0.008,0.562,0.008c0.644,0,1.124-0.112,1.44-0.335
				C123.958,20.171,124.121,19.851,124.121,19.438z M124.305,23.888c0-0.436-0.17-0.775-0.515-1.015
				c-0.342-0.237-0.866-0.354-1.57-0.354c-0.394,0-0.728,0.015-0.996,0.045v2.646c0.188,0.022,0.352,0.036,0.489,0.041
				c0.143,0.002,0.345,0.007,0.616,0.007c0.676,0,1.171-0.118,1.494-0.36C124.146,24.659,124.305,24.325,124.305,23.888z"/>
		</g>
		<g>
			<path style="fill:#00577C;" d="M140.448,21.708c0,0.84-0.144,1.619-0.426,2.335c-0.286,0.714-0.688,1.335-1.208,1.86
				c-0.518,0.526-1.139,0.937-1.861,1.237c-0.72,0.301-1.522,0.453-2.402,0.453c-0.882,0-1.685-0.151-2.398-0.453
				c-0.716-0.3-1.326-0.711-1.828-1.237c-0.501-0.525-0.892-1.146-1.159-1.86c-0.272-0.716-0.408-1.495-0.408-2.335
				c0-0.84,0.144-1.622,0.429-2.341c0.286-0.726,0.687-1.344,1.201-1.869c0.514-0.525,1.135-0.936,1.857-1.237
				c0.727-0.301,1.53-0.451,2.415-0.451c0.88,0,1.679,0.149,2.391,0.451c0.709,0.302,1.317,0.712,1.82,1.237
				s0.893,1.144,1.167,1.869C140.312,20.086,140.448,20.868,140.448,21.708z M137.617,21.708c0-0.517-0.072-0.996-0.218-1.425
				c-0.144-0.431-0.35-0.8-0.615-1.111c-0.263-0.311-0.583-0.555-0.95-0.73c-0.367-0.181-0.781-0.267-1.236-0.267
				c-0.448,0-0.855,0.086-1.23,0.267c-0.374,0.176-0.692,0.419-0.959,0.73c-0.263,0.312-0.468,0.681-0.615,1.111
				c-0.143,0.429-0.217,0.908-0.217,1.425c0,0.511,0.074,0.98,0.217,1.409c0.147,0.431,0.353,0.804,0.615,1.119
				c0.267,0.319,0.585,0.567,0.959,0.742c0.375,0.177,0.782,0.264,1.23,0.264c0.455,0,0.869-0.087,1.236-0.264
				c0.367-0.175,0.688-0.422,0.95-0.742c0.266-0.315,0.472-0.688,0.615-1.119C137.545,22.688,137.617,22.219,137.617,21.708z"/>
		</g>
		<g>
			<path style="fill:#00577C;" d="M149.603,24.043c0,0.458-0.085,0.898-0.248,1.325c-0.166,0.427-0.42,0.802-0.753,1.133
				c-0.337,0.335-0.763,0.599-1.27,0.796c-0.511,0.195-1.106,0.295-1.793,0.295c-0.319,0-0.656-0.03-1.002-0.093
				c-0.35-0.061-0.689-0.146-1.027-0.25c-0.338-0.101-0.66-0.226-0.973-0.366c-0.312-0.141-0.591-0.292-0.841-0.459l0.73-2.398
				c0.466,0.335,0.98,0.599,1.542,0.8c0.562,0.207,1.108,0.306,1.647,0.306c0.472,0,0.8-0.097,0.998-0.288
				c0.2-0.194,0.295-0.429,0.295-0.707c0-0.146-0.022-0.284-0.069-0.417c-0.045-0.127-0.144-0.259-0.294-0.395
				c-0.151-0.135-0.36-0.272-0.624-0.413c-0.265-0.138-0.613-0.295-1.051-0.475c-0.499-0.206-0.92-0.435-1.269-0.675
				c-0.346-0.244-0.628-0.508-0.842-0.786c-0.213-0.281-0.364-0.581-0.459-0.896c-0.092-0.314-0.14-0.644-0.14-0.987
				c0-0.415,0.085-0.822,0.258-1.214c0.172-0.398,0.421-0.746,0.756-1.052c0.331-0.306,0.75-0.553,1.253-0.74
				c0.503-0.188,1.085-0.278,1.751-0.278c0.311,0,0.618,0.025,0.924,0.076c0.31,0.052,0.603,0.122,0.882,0.203
				c0.279,0.085,0.539,0.177,0.777,0.282c0.238,0.104,0.44,0.208,0.609,0.326l-0.672,2.365c-0.166-0.114-0.353-0.225-0.562-0.334
				c-0.206-0.11-0.423-0.208-0.646-0.297c-0.221-0.087-0.444-0.158-0.667-0.218c-0.225-0.054-0.438-0.083-0.646-0.083
				c-0.489,0-0.834,0.093-1.044,0.279c-0.21,0.186-0.312,0.399-0.312,0.64c0,0.187,0.036,0.348,0.11,0.48
				c0.073,0.135,0.19,0.261,0.355,0.373c0.17,0.116,0.379,0.229,0.632,0.342c0.254,0.119,0.558,0.248,0.909,0.408
				c0.529,0.228,0.974,0.462,1.334,0.708c0.355,0.244,0.642,0.503,0.856,0.778c0.211,0.275,0.361,0.569,0.449,0.885
				C149.559,23.34,149.603,23.68,149.603,24.043z"/>
		</g>
		<g>
			<path style="fill:#00577C;" d="M160.983,26.535c-0.5,0.33-1.073,0.591-1.722,0.777c-0.646,0.188-1.3,0.28-1.953,0.28
				c-0.932,0-1.784-0.146-2.544-0.444c-0.763-0.294-1.421-0.707-1.972-1.231c-0.55-0.52-0.976-1.145-1.277-1.868
				c-0.3-0.72-0.45-1.501-0.45-2.342c0-0.852,0.15-1.637,0.45-2.356c0.302-0.723,0.728-1.343,1.277-1.87
				c0.551-0.524,1.209-0.935,1.972-1.23c0.76-0.296,1.612-0.442,2.544-0.442c0.665,0,1.296,0.09,1.89,0.271
				c0.599,0.184,1.157,0.421,1.674,0.723l-0.807,2.243c-0.425-0.241-0.869-0.426-1.333-0.564c-0.462-0.131-0.925-0.202-1.391-0.202
				c-0.533,0-1.008,0.079-1.442,0.237c-0.43,0.153-0.795,0.382-1.092,0.675c-0.292,0.296-0.52,0.657-0.682,1.082
				c-0.161,0.427-0.243,0.905-0.243,1.433c0,0.527,0.082,1.006,0.243,1.425c0.162,0.421,0.39,0.777,0.682,1.074
				c0.297,0.294,0.662,0.525,1.092,0.683c0.435,0.163,0.909,0.244,1.442,0.244c0.466,0,0.947-0.074,1.445-0.218
				c0.501-0.146,0.966-0.351,1.402-0.623L160.983,26.535z"/>
		</g>
		<g>
			<path style="fill:#00577C;" d="M174.029,21.708c0,0.84-0.144,1.619-0.43,2.335c-0.286,0.714-0.687,1.335-1.203,1.86
				c-0.521,0.526-1.145,0.937-1.863,1.237c-0.722,0.301-1.521,0.453-2.402,0.453c-0.885,0-1.682-0.151-2.401-0.453
				c-0.715-0.3-1.325-0.711-1.828-1.237c-0.504-0.525-0.89-1.146-1.16-1.86c-0.268-0.716-0.405-1.495-0.405-2.335
				c0-0.84,0.146-1.622,0.431-2.341c0.284-0.726,0.685-1.344,1.198-1.869s1.132-0.936,1.86-1.237
				c0.727-0.301,1.529-0.451,2.412-0.451c0.885,0,1.68,0.149,2.39,0.451c0.71,0.302,1.316,0.712,1.82,1.237
				c0.506,0.525,0.896,1.144,1.166,1.869C173.889,20.086,174.029,20.868,174.029,21.708z M171.195,21.708
				c0-0.517-0.073-0.996-0.217-1.425c-0.147-0.431-0.352-0.8-0.616-1.111c-0.266-0.311-0.58-0.555-0.952-0.73
				c-0.366-0.181-0.776-0.267-1.237-0.267c-0.445,0-0.853,0.086-1.229,0.267c-0.37,0.176-0.689,0.419-0.958,0.73
				c-0.264,0.312-0.466,0.681-0.612,1.111c-0.146,0.429-0.217,0.908-0.217,1.425c0,0.511,0.07,0.98,0.217,1.409
				c0.146,0.431,0.349,0.804,0.612,1.119c0.269,0.319,0.588,0.567,0.958,0.742c0.377,0.177,0.784,0.264,1.229,0.264
				c0.461,0,0.871-0.087,1.237-0.264c0.372-0.175,0.687-0.422,0.952-0.742c0.265-0.315,0.469-0.688,0.616-1.119
				C171.122,22.688,171.195,22.219,171.195,21.708z"/>
		</g>
		<g>
			<path style="fill:#00577C;" d="M185.653,26.535c-0.495,0.33-1.07,0.591-1.717,0.777c-0.649,0.188-1.3,0.28-1.952,0.28
				c-0.937,0-1.784-0.146-2.548-0.444c-0.765-0.294-1.418-0.707-1.969-1.231c-0.551-0.52-0.975-1.145-1.276-1.868
				c-0.301-0.72-0.452-1.501-0.452-2.342c0-0.852,0.151-1.637,0.452-2.356c0.302-0.723,0.726-1.343,1.276-1.87
				c0.551-0.524,1.204-0.935,1.969-1.23c0.764-0.296,1.611-0.442,2.548-0.442c0.66,0,1.292,0.09,1.889,0.271
				c0.597,0.184,1.155,0.421,1.675,0.723l-0.812,2.243c-0.426-0.241-0.869-0.426-1.327-0.564c-0.464-0.131-0.931-0.202-1.397-0.202
				c-0.526,0-1.008,0.079-1.438,0.237c-0.434,0.153-0.795,0.382-1.089,0.675c-0.297,0.296-0.526,0.657-0.687,1.082
				c-0.162,0.427-0.24,0.905-0.24,1.433c0,0.527,0.078,1.006,0.24,1.425c0.16,0.421,0.39,0.777,0.687,1.074
				c0.294,0.294,0.655,0.525,1.089,0.683c0.431,0.163,0.912,0.244,1.438,0.244c0.467,0,0.952-0.074,1.447-0.218
				c0.5-0.146,0.966-0.351,1.403-0.623L185.653,26.535z"/>
		</g>
		<g>
			<path style="fill:#00577C;" d="M198.7,21.708c0,0.84-0.143,1.619-0.426,2.335c-0.286,0.714-0.689,1.335-1.208,1.86
				c-0.518,0.526-1.137,0.937-1.86,1.237c-0.722,0.301-1.523,0.453-2.404,0.453c-0.882,0-1.681-0.151-2.397-0.453
				c-0.715-0.3-1.325-0.711-1.828-1.237c-0.503-0.525-0.891-1.146-1.16-1.86c-0.271-0.716-0.406-1.495-0.406-2.335
				c0-0.84,0.142-1.622,0.429-2.341c0.286-0.726,0.686-1.344,1.2-1.869c0.514-0.525,1.135-0.936,1.858-1.237
				c0.727-0.301,1.53-0.451,2.414-0.451c0.882,0,1.678,0.149,2.39,0.451c0.71,0.302,1.319,0.712,1.821,1.237
				s0.892,1.144,1.168,1.869C198.564,20.086,198.7,20.868,198.7,21.708z M195.871,21.708c0-0.517-0.074-0.996-0.22-1.425
				c-0.143-0.431-0.351-0.8-0.614-1.111c-0.264-0.311-0.582-0.555-0.951-0.73c-0.367-0.181-0.782-0.267-1.236-0.267
				c-0.448,0-0.855,0.086-1.229,0.267c-0.376,0.176-0.694,0.419-0.959,0.73c-0.262,0.312-0.469,0.681-0.617,1.111
				c-0.143,0.429-0.216,0.908-0.216,1.425c0,0.511,0.073,0.98,0.216,1.409c0.148,0.431,0.355,0.804,0.617,1.119
				c0.265,0.319,0.583,0.567,0.959,0.742c0.374,0.177,0.781,0.264,1.229,0.264c0.454,0,0.869-0.087,1.236-0.264
				c0.369-0.175,0.688-0.422,0.951-0.742c0.264-0.315,0.472-0.688,0.614-1.119C195.797,22.688,195.871,22.219,195.871,21.708z"/>
		</g>
		<g>
			<path style="fill:#00577C;" d="M200.805,27.405v-11.41h2.645v8.998h4.579v2.413H200.805z"/>
		</g>
		<g>
			<path style="fill:#00577C;" d="M209.554,27.405v-11.41h2.646v8.998h4.576v2.413H209.554z"/>
		</g>
		<g>
			<path style="fill:#00577C;" d="M218.304,27.405v-11.41h7.221v2.429h-4.579v2.039h4.174v2.302h-4.174v2.228h4.579v2.413H218.304z"
				/>
		</g>
		<g>
			<path style="fill:#00577C;" d="M237.79,20.992v5.449c-0.63,0.362-1.296,0.645-1.985,0.847c-0.69,0.206-1.468,0.305-2.341,0.305
				c-0.84,0-1.621-0.144-2.351-0.427c-0.727-0.286-1.362-0.689-1.9-1.208c-0.54-0.518-0.962-1.137-1.273-1.86
				c-0.312-0.721-0.471-1.519-0.471-2.391c0-0.87,0.161-1.669,0.478-2.398c0.315-0.727,0.748-1.345,1.3-1.868
				c0.551-0.517,1.198-0.92,1.945-1.208c0.748-0.281,1.554-0.425,2.41-0.425c0.751,0,1.435,0.088,2.048,0.263
				c0.617,0.177,1.215,0.415,1.785,0.716l-1.104,2.131c-0.822-0.424-1.675-0.639-2.554-0.639c-0.569,0-1.074,0.085-1.504,0.251
				c-0.43,0.165-0.792,0.403-1.089,0.708s-0.518,0.667-0.668,1.089c-0.149,0.418-0.228,0.878-0.228,1.377
				c0,0.541,0.084,1.031,0.257,1.473c0.173,0.44,0.407,0.812,0.71,1.112c0.3,0.301,0.651,0.535,1.055,0.7
				c0.408,0.166,0.842,0.25,1.312,0.25c0.426,0,0.758-0.024,1-0.069c0.246-0.048,0.473-0.128,0.68-0.243v-1.682h-2.292v-2.257
				H237.79z"/>
		</g>
		<g>
			<path style="fill:#00577C;" d="M239.923,27.405v-11.41h7.226v2.429h-4.578v2.039h4.173v2.302h-4.173v2.228h4.578v2.413H239.923z"
				/>
		</g>
	</g>
	<g>
		<g>
			<path style="fill:#00577C;" d="M81.656,41.443h5.463v2.411h-9.685l-0.076-0.278l5.649-8.703h-5.247v-2.428h9.469l0.077,0.294
				L81.656,41.443z"/>
		</g>
		<g>
			<path style="fill:#00577C;" d="M99.417,44.044l-0.357,0.032l-3.504-6.835l-3.455,6.835l-0.341-0.032l-4.161-11.599h3.038
				l1.838,5.991l2.975-6.086h0.277l2.989,6.041l1.82-5.946h2.974L99.417,44.044z"/>
		</g>
		<g>
			<path style="fill:#00577C;" d="M104.834,43.854V32.445h2.647v11.409H104.834z"/>
		</g>
		<g>
			<path style="fill:#00577C;" d="M116.215,39.915c0,0.625-0.075,1.189-0.218,1.7c-0.146,0.507-0.381,0.94-0.7,1.299
				c-0.323,0.357-0.741,0.637-1.264,0.836c-0.519,0.192-1.155,0.294-1.912,0.294c-0.613,0-1.159-0.067-1.645-0.196
				c-0.481-0.128-0.973-0.334-1.473-0.612l0.826-2.215c0.312,0.198,0.666,0.35,1.061,0.452c0.396,0.106,0.778,0.159,1.149,0.159
				c0.539,0,0.929-0.167,1.169-0.493c0.238-0.327,0.358-0.812,0.358-1.454v-7.239h2.647V39.915z"/>
		</g>
		<g>
			<path style="fill:#00577C;" d="M128.156,44.076l-6.884-6.183v5.961h-2.644V32.288l0.355-0.062l6.79,6.134v-5.914h2.645v11.583
				L128.156,44.076z"/>
		</g>
		<g>
			<path style="fill:#00577C;" d="M137.854,43.854l-0.856-2.069h-3.939l-0.855,2.069h-2.692l5.371-11.504h0.355l5.373,11.504
				H137.854z M135.035,37.023l-1.134,2.738h2.258L135.035,37.023z"/>
		</g>
		<g>
			<path style="fill:#00577C;" d="M148.639,43.854l-0.855-2.069h-3.938l-0.855,2.069h-2.694l5.372-11.504h0.358l5.369,11.504
				H148.639z M145.822,37.023l-1.137,2.738h2.257L145.822,37.023z"/>
		</g>
		<g>
			<path style="fill:#00577C;" d="M158.523,43.854l-1.944-3.72c-0.081,0.014-0.159,0.016-0.224,0.016c-0.069,0-0.146,0-0.229,0
				c-0.193,0-0.363-0.002-0.496-0.008c-0.135-0.008-0.296-0.014-0.483-0.023v3.735h-2.648V32.553
				c0.489-0.052,1.003-0.095,1.543-0.134c0.54-0.035,1.145-0.05,1.819-0.05c0.894,0,1.653,0.095,2.273,0.293
				c0.624,0.199,1.133,0.468,1.535,0.812c0.4,0.342,0.689,0.745,0.872,1.203c0.181,0.463,0.272,0.956,0.272,1.473
				c0,0.687-0.173,1.314-0.514,1.891c-0.342,0.577-0.825,1.047-1.447,1.41l2.673,4.404H158.523z M158.059,36.241
				c0-0.477-0.17-0.848-0.515-1.111c-0.341-0.266-0.796-0.396-1.369-0.396c-0.206,0-0.386,0.006-0.529,0.015
				c-0.146,0.011-0.311,0.033-0.498,0.062v3.147c0.176,0.021,0.322,0.032,0.436,0.041c0.114,0.002,0.25,0.006,0.404,0.006
				c0.636,0,1.137-0.15,1.513-0.445C157.871,37.264,158.059,36.826,158.059,36.241z"/>
		</g>
		<g>
			<path style="fill:#00577C;" d="M173.253,38.048c0,0.842-0.138,1.622-0.409,2.345c-0.268,0.72-0.683,1.345-1.236,1.869
				c-0.555,0.521-1.265,0.937-2.125,1.237c-0.86,0.302-1.884,0.451-3.066,0.451c-0.333,0-0.636-0.002-0.911-0.008
				c-0.273-0.007-0.547-0.019-0.812-0.033c-0.264-0.014-0.535-0.036-0.813-0.062c-0.282-0.027-0.598-0.056-0.951-0.085v-11.21
				c0.663-0.07,1.253-0.121,1.759-0.146c0.509-0.027,1.05-0.037,1.617-0.037c1.187,0,2.211,0.143,3.085,0.435
				c0.868,0.289,1.592,0.689,2.162,1.199c0.572,0.507,0.998,1.109,1.277,1.8C173.112,36.491,173.253,37.241,173.253,38.048z
				 M170.433,38.048c0-1.034-0.32-1.851-0.959-2.434c-0.638-0.588-1.574-0.881-2.809-0.881c-0.226,0-0.416,0.006-0.562,0.015
				c-0.144,0.011-0.323,0.024-0.527,0.048v6.725c0.124,0.011,0.23,0.023,0.32,0.034c0.088,0.005,0.177,0.017,0.27,0.021
				c0.097,0.003,0.192,0.005,0.298,0.005c0.103,0,0.229,0,0.371,0c0.625,0,1.16-0.082,1.611-0.248
				c0.452-0.164,0.825-0.403,1.124-0.715c0.293-0.313,0.513-0.684,0.653-1.12C170.361,39.062,170.433,38.58,170.433,38.048z"/>
		</g>
		<g>
			<path style="fill:#00577C;" d="M175.351,43.854V32.445h7.225v2.428h-4.578v2.04h4.175v2.303h-4.175v2.228h4.578v2.411H175.351z"
				/>
		</g>
	</g>
</g>
</svg>
