<?xml version="1.0" encoding="iso-8859-1"?>
<!-- Generator: Adobe Illustrator 16.0.0, SVG Export Plug-In . SVG Version: 6.00 Build 0)  -->
<!DOCTYPE svg PUBLIC "-//W3C//DTD SVG 1.1//EN" "http://www.w3.org/Graphics/SVG/1.1/DTD/svg11.dtd">
<svg version="1.1" id="Layer_1" xmlns="http://www.w3.org/2000/svg" xmlns:xlink="http://www.w3.org/1999/xlink" x="0px" y="0px"
	 width="60px" height="60px" viewBox="0 0 60 60" style="enable-background:new 0 0 60 60;" xml:space="preserve">
<path style="fill:#FFFFFF;" d="M44.134,24.411c-0.001-0.685-0.005-1.37-0.013-2.054c-0.01-1.001-0.741-1.751-1.714-2.001
	C42.311,20.331,42,20.335,42,20.337v-0.013l-24-0.017v0.025c0,0.002-0.155-0.008-0.183-0.003c-0.952,0.173-1.712,0.994-1.728,1.96
	c-0.008,0.447-0.03,0.893-0.03,1.339c0,4.942-0.011,9.884-0.019,14.826c-0.001,0.882,0.354,1.522,1.127,1.928
	C17.441,40.524,18,40.571,18,40.587V41h0.101c0.043,0,0.087,0,0.131,0L42,40.612v-0.019c0,0.002,0.337,0.002,0.528-0.028
	c1.03-0.163,1.665-1.044,1.663-2.166C44.184,33.736,44.144,29.074,44.134,24.411z M19.271,25.611
	c3.432,2.454,6.837,4.907,10.267,7.364L19,39.896c0-4.809,0-9.591,0-14.407C19,25.545,19.215,25.573,19.271,25.611z M30.007,33.375
	l10.161,6.692l-20.3-0.015L30.007,33.375z M41,39.983l-10.547-6.956c0.01-0.006,0.019-0.008,0.027-0.015
	c3.416-2.437,6.818-4.879,10.232-7.319C40.794,25.636,41,25.585,41,25.501C41,30.366,41,35.169,41,39.983z M30.364,28.71
	c-0.229,0.165-0.369,0.152-0.587-0.006c-3.39-2.44-6.784-4.872-10.177-7.308l20.91,0.015C37.129,23.845,33.742,26.273,30.364,28.71z
	"/>
</svg>
