<?xml version="1.0" encoding="iso-8859-1"?>
<!-- Generator: Adobe Illustrator 16.0.0, SVG Export Plug-In . SVG Version: 6.00 Build 0)  -->
<!DOCTYPE svg PUBLIC "-//W3C//DTD SVG 1.1//EN" "http://www.w3.org/Graphics/SVG/1.1/DTD/svg11.dtd">
<svg version="1.1" id="Layer_1" xmlns="http://www.w3.org/2000/svg" xmlns:xlink="http://www.w3.org/1999/xlink" x="0px" y="0px"
	 width="60px" height="60px" viewBox="0 0 60 60" style="enable-background:new 0 0 60 60;" xml:space="preserve">
<g>
	<path style="fill:#FFFFFF;" d="M39.921,35.975v3.719l-4.357,1.005c-1.505,0.346-3.181,0.519-5.03,0.519
		c-3.862,0-6.848-1.229-8.961-3.688c-1.77-2.073-2.652-4.521-2.652-7.346c0-3.109,1.078-5.75,3.231-7.924
		c2.316-2.317,5.345-3.476,9.084-3.476c1.585,0,3.14,0.213,4.663,0.641c1.402,0.386,2.744,1.016,4.022,1.889l-2.528,2.408
		l-1.067,0.244l0.763-1.228c-1.972-1.925-4.146-2.887-6.523-2.887c-2.439,0-4.455,0.84-6.051,2.519
		c-1.597,1.679-2.394,3.841-2.394,6.487c0,3.012,0.966,5.588,2.896,7.723c2.073,2.28,4.703,3.419,7.895,3.419
		c1.32,0,2.61-0.253,3.871-0.762v-4.907l-4.603,0.243l2.438-1.31h6.462l-0.793,0.761c-0.163,0.163-0.264,0.326-0.304,0.489
		C39.941,34.877,39.921,35.363,39.921,35.975z"/>
</g>
</svg>
