<?xml version="1.0" encoding="iso-8859-1"?>
<!-- Generator: Adobe Illustrator 16.0.0, SVG Export Plug-In . SVG Version: 6.00 Build 0)  -->
<!DOCTYPE svg PUBLIC "-//W3C//DTD SVG 1.1//EN" "http://www.w3.org/Graphics/SVG/1.1/DTD/svg11.dtd">
<svg version="1.1" id="Layer_1" xmlns="http://www.w3.org/2000/svg" xmlns:xlink="http://www.w3.org/1999/xlink" x="0px" y="0px"
	 width="60px" height="60px" viewBox="0 0 60 60" style="enable-background:new 0 0 60 60;" xml:space="preserve">
<g>
	<path style="fill:#FFFFFF;" d="M23.099,37.334c1.409,0.831,3.614,1.555,5.89,1.555c2.817,0,4.409-1.338,4.409-3.324
		c0-1.843-1.229-2.928-4.301-4.048c-4.046-1.408-6.611-3.576-6.611-7.044c0-4.01,3.324-7.009,8.634-7.009
		c2.639,0,4.553,0.579,5.816,1.193l-1.046,3.613c-0.904-0.47-2.603-1.156-4.878-1.156c-2.818,0-4.011,1.481-4.011,2.926
		c0,1.879,1.41,2.746,4.661,3.974c4.228,1.626,6.25,3.758,6.25,7.226c0,3.938-2.963,7.299-9.213,7.299
		c-2.601,0-5.274-0.724-6.611-1.518L23.099,37.334z"/>
</g>
</svg>
