<?xml version="1.0" encoding="iso-8859-1"?>
<!-- Generator: Adobe Illustrator 16.0.0, SVG Export Plug-In . SVG Version: 6.00 Build 0)  -->
<!DOCTYPE svg PUBLIC "-//W3C//DTD SVG 1.1//EN" "http://www.w3.org/Graphics/SVG/1.1/DTD/svg11.dtd">
<svg version="1.1" id="Layer_1" xmlns="http://www.w3.org/2000/svg" xmlns:xlink="http://www.w3.org/1999/xlink" x="0px" y="0px"
	 width="60px" height="60px" viewBox="0 0 60 60" style="enable-background:new 0 0 60 60;" xml:space="preserve">
<g>
	<path style="fill:#FFFFFF;" d="M36.479,25.771l-3.137-3.795l-5.409,3.795H23.38c-0.877,0-1.639,0.329-2.276,0.988
		c-0.643,0.655-0.963,1.424-0.963,2.297v4.051l-2.729-7.488c-0.169-0.638,0.017-1.079,0.556-1.313l17.198-6.273
		c0.268-0.066,0.523-0.049,0.758,0.049c0.234,0.099,0.403,0.289,0.507,0.556l2.58,7.134H36.479z M41.69,28.048
		c0.268,0,0.498,0.103,0.683,0.3c0.186,0.206,0.276,0.44,0.276,0.708v11.938c0,0.271-0.091,0.511-0.276,0.708
		c-0.185,0.206-0.415,0.305-0.683,0.305H23.38c-0.271,0-0.498-0.099-0.684-0.305c-0.185-0.197-0.279-0.437-0.279-0.708V29.056
		c0-0.268,0.095-0.502,0.279-0.708c0.186-0.197,0.412-0.3,0.684-0.3H41.69z M40.273,35.379l-1.823-4.042l-4.194,1.515l-3.289,3.339
		l-3.491-4.302l-2.325,5.417v2.174h15.123V35.379z"/>
</g>
</svg>
