<?xml version="1.0" encoding="iso-8859-1"?>
<!-- Generator: Adobe Illustrator 16.0.0, SVG Export Plug-In . SVG Version: 6.00 Build 0)  -->
<!DOCTYPE svg PUBLIC "-//W3C//DTD SVG 1.1//EN" "http://www.w3.org/Graphics/SVG/1.1/DTD/svg11.dtd">
<svg version="1.1" id="Layer_1" xmlns="http://www.w3.org/2000/svg" xmlns:xlink="http://www.w3.org/1999/xlink" x="0px" y="0px"
	 width="60px" height="60px" viewBox="0 0 60 60" style="enable-background:new 0 0 60 60;" xml:space="preserve">
<g>
	<path style="fill:#FFFFFF;" d="M41.913,38.613c0.626,0.708,0.692,1.365,0.185,1.95l-1.447,1.447
		c-0.339,0.298-0.703,0.441-1.104,0.441s-0.75-0.144-1.042-0.441l-5.989-5.984c-0.719,0.421-1.494,0.749-2.336,0.976
		c-0.842,0.235-1.703,0.349-2.586,0.349c-1.345,0-2.628-0.277-3.845-0.821c-1.222-0.544-2.283-1.272-3.187-2.174
		c-0.903-0.903-1.627-1.965-2.177-3.187c-0.544-1.217-0.821-2.5-0.821-3.844c0-1.345,0.257-2.618,0.76-3.819
		c0.503-1.201,1.196-2.237,2.079-3.12s1.914-1.581,3.089-2.084c1.181-0.503,2.438-0.754,3.788-0.754
		c1.345,0,2.628,0.272,3.845,0.816c1.221,0.554,2.294,1.273,3.218,2.176c0.924,0.908,1.663,1.971,2.207,3.187
		c0.544,1.222,0.821,2.5,0.821,3.85c0,1.853-0.482,3.552-1.453,5.106L41.913,38.613z M20.531,27.325
		c0,0.924,0.189,1.817,0.569,2.679c0.375,0.862,0.889,1.622,1.545,2.269c0.647,0.656,1.406,1.17,2.269,1.55
		c0.862,0.374,1.756,0.564,2.68,0.564s1.796-0.18,2.617-0.534c0.821-0.359,1.534-0.842,2.146-1.452
		c0.61-0.61,1.093-1.324,1.452-2.146c0.354-0.816,0.534-1.709,0.534-2.679c0-0.929-0.19-1.812-0.57-2.654
		c-0.374-0.836-0.893-1.581-1.545-2.237c-0.651-0.647-1.406-1.165-2.269-1.54c-0.861-0.38-1.755-0.569-2.679-0.569
		c-0.929,0-1.796,0.179-2.617,0.534c-0.821,0.359-1.535,0.842-2.146,1.452c-0.611,0.606-1.094,1.324-1.452,2.146
		C20.711,25.528,20.531,26.401,20.531,27.325z"/>
</g>
</svg>
